<svg width="40" height="39" viewBox="0 0 40 39" fill="none" xmlns="http://www.w3.org/2000/svg">
<path fill-rule="evenodd" clip-rule="evenodd" d="M19.8827 -8.55285e-06C8.90253 -8.55285e-06 0 8.90252 0 19.8851C0 28.6705 5.69698 36.1228 13.5985 38.7534C14.5934 38.9353 14.956 38.3213 14.956 37.7939C14.956 37.3227 14.9389 36.0715 14.9291 34.4126C9.39813 35.6138 8.23115 31.7466 8.23115 31.7466C7.32661 29.4493 6.02291 28.8377 6.02291 28.8377C4.2175 27.6048 6.15963 27.6292 6.15963 27.6292C8.15546 27.7696 9.20526 29.6787 9.20526 29.6787C10.9789 32.7171 13.8598 31.8394 14.9926 31.3304C15.1732 30.0462 15.6859 29.1697 16.2548 28.6729C11.8395 28.1712 7.19722 26.4647 7.19722 18.8451C7.19722 16.6747 7.97236 14.8998 9.24432 13.5094C9.03925 13.0065 8.35688 10.985 9.43841 8.24701C9.43841 8.24701 11.1083 7.71234 14.9071 10.2856C16.4928 9.84368 18.1945 9.62395 19.8851 9.61663C21.5733 9.62395 23.275 9.84368 24.8631 10.2856C28.6595 7.71234 30.3257 8.24701 30.3257 8.24701C31.4109 10.985 30.7286 13.0065 30.5235 13.5094C31.7979 14.8998 32.5681 16.6747 32.5681 18.8451C32.5681 26.4842 27.9185 28.1651 23.4886 28.657C24.2027 29.271 24.8387 30.4844 24.8387 32.3399C24.8387 34.9973 24.8143 37.1421 24.8143 37.7939C24.8143 38.3262 25.172 38.945 26.1815 38.751C34.0769 36.1155 39.769 28.668 39.769 19.8851C39.769 8.90252 30.8653 -8.55285e-06 19.8827 -8.55285e-06Z" fill="black"/>
</svg>
